<svg xmlns="http://www.w3.org/2000/svg" xmlns:xlink="http://www.w3.org/1999/xlink" viewBox="0 0 1000 665"><defs><path id="a" d="M994.5 608.2V54.9c0-28.4-23-51.4-51.4-51.4H55.9c-28.4 0-51.4 23-51.4 51.4v553.2c0 28.4 23 51.4 51.4 51.4h887.2c28.4 0 51.4-23 51.4-51.3z"/></defs><clipPath id="b"><use xlink:href="#a" overflow="visible"/></clipPath><g clip-path="url(#b)"><path fill="#FFF" d="M0 10.5h989V665H0z"/><path fill="#004A97" d="M527.3 375.6c85.8.4 164.2-70 164.2-155.7 0-93.7-78.4-158.4-164.2-158.4h-73.9C366.5 61.6 295 126.3 295 220c0 85.7 71.5 156.1 158.4 155.7h73.9m-41-72.3c34.2-13.1 58.5-46.2 58.5-85-.1-38.8-24.3-71.9-58.5-85v170m-123.7-85.1c.1 38.8 24.3 71.9 58.5 85v-170c-34.2 13.2-58.4 46.2-58.5 85m91.1-143.7c79.4 0 143.7 64.4 143.8 143.8 0 79.4-64.3 143.7-143.8 143.7-79.4 0-143.7-64.3-143.7-143.7 0-79.5 64.3-143.8 143.7-143.8"/><path fill="#231F20" d="M134.4 482.8c0 12.8 9.1 14.3 17.3 14.3 35.9 0 47.6-27.1 47.6-51.8 0-31-19.9-53.4-52-53.4-6.8 0-10 .5-13 .7v90.2h.1zm-16.3-77.9c0-14.9-7.8-13.9-15.3-14.1v-4.3c6.5.3 13.1.3 19.6.3 7 0 16.4-.3 28.7-.3 43 0 66.4 28.7 66.4 58.1 0 16.4-9.6 57.8-68.4 57.8-8.5 0-16.3-.3-24.1-.3-7.5 0-14.8.2-22.2.3v-4.3c10-1 14.8-1.3 15.3-12.6v-80.6m123.1-3.9c-4.3 0-8.1-4-8.1-8.3 0-4.2 4-8 8.1-8 4.3 0 8.1 3.5 8.1 8s-3.6 8.3-8.1 8.3m-17.8 97.1h3.2c4.6 0 8 0 8-5.5v-45c0-7.3-2.5-8.3-8.6-11.6v-2.7c7.8-2.3 17.1-5.5 17.8-6 1.2-.7 2.2-.8 3-.8.8 0 1.2 1 1.2 2.3v63.7c0 5.5 3.7 5.5 8.3 5.5h2.8v4.3c-5.6 0-11.5-.3-17.4-.3-6 0-12 .2-18.1.3v-4.2m51.1-49.5c0-6.1-1.8-7.8-9.6-10.9v-3.2c7.1-2.3 13.9-4.5 21.9-8 .5 0 1 .3 1 1.7V439c9.5-6.8 17.6-12.5 28.7-12.5 14.1 0 19.1 10.3 19.1 23.2v42.8c0 5.5 3.7 5.5 8.3 5.5h3v4.3c-5.8 0-11.6-.3-17.6-.3-6 0-12 .2-17.9.3V498h3c4.7 0 8 0 8-5.5v-43c0-9.5-5.8-14.1-15.3-14.1-5.3 0-13.8 4.3-19.3 8v49.1c0 5.5 3.7 5.5 8.3 5.5h3v4.3c-5.8 0-11.6-.3-17.6-.3-6 0-12 .2-17.9.3V498h3c4.6 0 8 0 8-5.5v-43.9m114.3 2.7c4.1 0 4.6-2.2 4.6-4.2 0-8.5-5.1-15.3-14.4-15.3-10.1 0-17.1 7.5-19.1 19.4h28.9v.1zm-29.4 5.3c-.3 1.5-.3 4 0 9.6 1 15.8 11.1 28.7 24.4 28.7 9.1 0 16.3-5 22.4-11.1l2.3 2.3c-7.6 10.1-17.1 18.8-30.7 18.8-26.4 0-31.7-25.6-31.7-36.2 0-32.6 21.9-42.2 33.5-42.2 13.5 0 27.9 8.5 28.1 26.1 0 1 0 2-.2 3l-1.5 1h-46.6m52.2 41.5h4.5c4.6 0 8 0 8-5.5V446c0-5.1-6.1-6.1-8.6-7.5V436c12.1-5.2 18.8-9.5 20.3-9.5 1 0 1.5.5 1.5 2.2v14.9h.4c4.1-6.5 11.1-17.1 21.2-17.1 4.2 0 9.5 2.8 9.5 8.8 0 4.5-3.1 8.5-7.8 8.5-5.2 0-5.2-4-11-4-2.8 0-12.1 3.8-12.1 13.8v39c0 5.5 3.3 5.5 8 5.5h9.3v4.3c-9.1-.2-16.1-.3-23.2-.3-6.8 0-13.8.2-19.8.3v-4.3m63.7-18.8c2.2 11 8.8 20.3 20.9 20.3 9.8 0 13.4-6 13.4-11.8 0-19.6-36.2-13.3-36.2-40 0-9.3 7.5-21.3 25.7-21.3 5.3 0 12.4 1.5 18.9 4.8l1.2 16.9H516c-1.7-10.5-7.5-16.4-18.1-16.4-6.6 0-12.9 3.8-12.9 11 0 19.4 38.5 13.4 38.5 39.5 0 11-8.8 22.6-28.6 22.6-6.6 0-14.4-2.3-20.2-5.6l-1.8-19.1 2.9-.9m197.6-62.7h-4.1c-3.2-19.4-16.9-27.2-35.5-27.2-19.1 0-46.8 12.8-46.8 52.6 0 33.6 23.9 57.6 49.5 57.6 16.4 0 30.1-11.3 33.4-28.7l3.8 1-3.8 24.2c-7 4.3-25.7 8.8-36.7 8.8-38.8 0-63.4-25.1-63.4-62.4 0-34 30.4-58.5 62.9-58.5 13.4 0 26.4 4.3 39.2 8.8l1.5 23.8m5.9 81.5h3.1c4.7 0 8 0 8-5.5v-92.5c0-10.8-2.5-11.1-8.8-13v-2.7c6.6-2.2 13.6-5.1 17.1-7.1 1.8-1 3.2-1.8 3.6-1.8 1 0 1.3 1 1.3 2.3v114.7c0 5.5 3.7 5.5 8.3 5.5h2.8v4.3c-5.6 0-11.4-.3-17.4-.3-6 0-12 .2-18.1.3v-4.2m106.8-4.8c0 3 1.8 3.2 4.6 3.2 2 0 4.5-.2 6.6-.2v3.5c-7.1.7-20.8 4.1-23.9 5.1l-.8-.5V491c-9.9 8.1-17.6 13.9-29.4 13.9-9 0-18.3-5.8-18.3-19.8v-42.5c0-4.3-.7-8.5-9.9-9.3v-3.2c6-.2 19.2-1.2 21.4-1.2 1.8 0 1.8 1.2 1.8 4.8v42.8c0 5 0 19.3 14.4 19.3 5.6 0 13.1-4.3 20.1-10.1V441c0-3.3-8-5.1-13.9-6.8v-3c14.9-1 24.2-2.3 25.9-2.3 1.3 0 1.3 1.2 1.3 3v61.4m33.1-9.7c0 6.3 6 16.9 17.1 16.9 17.8 0 25.2-17.4 25.2-32.2 0-17.9-13.6-32.9-26.6-32.9-6.2 0-11.3 4-15.8 7.8v40.4h.1zm0-45.1c6.6-5.6 15.6-12 24.7-12 19.3 0 30.9 16.8 30.9 34.9 0 21.7-15.9 43.5-39.7 43.5-12.3 0-18.8-4-23.1-5.8l-5 3.8-3.5-1.8c1.5-9.8 2.3-19.4 2.3-29.6v-71.4c0-10.8-2.5-11.1-8.8-13v-2.7c6.7-2.2 13.6-5.1 17.1-7.1 1.8-1 3.1-1.8 3.7-1.8 1 0 1.3 1 1.3 2.3v60.7M102.7 598.9h1.3c3.3 0 6.7-.4 6.7-5.1v-47.3c0-4.7-3.4-5.2-6.7-5.2h-1.3v-2.7c3.5 0 8.9.4 13.4.4s9.9-.4 14.2-.4v2.7H129c-3.2 0-6.7.4-6.7 5.2v47.3c0 4.7 3.4 5.1 6.7 5.1h1.3v2.7c-4.3 0-9.8-.4-14.3-.4-4.4 0-9.8.4-13.3.4v-2.7m27.2 2.4v-1.9h-.9c-3.2 0-7.1-.6-7.1-5.6v-47.3c0-5 3.9-5.6 7.1-5.6h.9V539c-4.2 0-9.4.4-13.8.4-4.3 0-9.5-.3-13-.4v1.9h.9c3.2 0 7.1.6 7.1 5.6v47.3c0 5-3.8 5.6-7.1 5.6h-.9v1.9c3.5 0 8.6-.4 12.9-.4 4.4 0 9.6.3 13.9.4m.4.7c-4.4 0-9.8-.4-14.3-.4-4.4 0-9.7.4-13.3.4h-.4v-3.5H104c3.3-.1 6.3-.3 6.3-4.8v-47.3c0-4.4-3-4.7-6.3-4.8h-1.7v-3.5h.4c3.5 0 9 .4 13.4.4 4.5 0 9.9-.4 14.2-.4h.4v3.5H129c-3.3.1-6.3.3-6.3 4.8v47.3c0 4.4 3 4.7 6.3 4.8h1.7v3.5h-.4m62-18.1l.2-.2v-33.9c0-7.4-5.2-8.5-7.9-8.5h-2v-2.7c4.3 0 8.4.4 12.6.4 3.7 0 7.4-.4 11.1-.4v2.7H205c-3.8 0-8 .7-8 11.5v41.1c0 3.2.1 6.3.5 9.1h-3.4l-46.5-51.9v37.2c0 7.9 1.5 10.6 8.5 10.6h1.5v2.7c-3.9 0-7.8-.4-11.7-.4-4.1 0-8.2.4-12.3.4v-2.7h1.3c6.2 0 8.1-4.2 8.1-11.5v-38.1c0-5-4.2-8.1-8.2-8.1h-1.2v-2.7c3.4 0 7 .4 10.4.4 2.7 0 5.3-.4 8-.4l40.3 45.4m-.2-.2zm.2.2l.3-.3-.3.3zm1.8 18.7h3c-.4-2.7-.5-5.7-.5-8.7v-41.1c0-10.8 4.5-11.9 8.4-11.9h1V539c-3.6 0-7.1.4-10.7.4-4.1 0-8.2-.3-12.2-.4v1.9h1.6c2.8 0 8.3 1.2 8.3 8.9l-.1 34.1-.2.2-.3.3-40.3-45.4c-2.7 0-5.3.4-8.1.4-3.3 0-6.7-.3-10-.4v1.9h.8c4.2 0 8.6 3.2 8.6 8.5v38c0 7.2-2 11.8-8.5 11.9h-.9v1.9c3.9 0 7.9-.4 11.9-.4 3.8 0 7.5.3 11.3.4v-1.9h-1.1c-7.1 0-8.9-3.1-8.9-11v-38.2l46.9 52.5zm3.4.8l-3.7-.1-45.8-51.1v36.2c.1 7.9 1.3 10.1 8.1 10.2h1.9v3.5h-.4c-3.9 0-7.8-.4-11.7-.4-4 0-8.2.4-12.3.4h-.4v-3.5H134.9c6 0 7.7-3.9 7.7-11.1v-38c0-4.8-4-7.7-7.8-7.7h-1.6v-3.5h.4c3.5 0 7 .4 10.4.4 2.7 0 5.3-.4 8.3-.2l39.7 44.7V550c0-7.2-4.8-8.1-7.5-8.1h-2.4v-3.5h.4c4.3 0 8.4.4 12.6.4 3.7 0 7.4-.4 11.1-.4h.4v3.5H204.9c-3.7.1-7.6.4-7.7 11.1v41.1c0 3.2.1 6.3.5 9l.1.5h-.3m22.4-60.5c-6.8 0-7 1.6-8.4 8.2h-2.7c.4-2.5.8-5.1 1.1-7.7.4-2.5.5-5.1.5-7.7h2.2c.7 2.7 3 2.6 5.4 2.6h46.6c2.5 0 4.7-.1 4.9-2.8l2.2.4c-.3 2.4-.7 4.9-1 7.3-.2 2.4-.2 4.9-.2 7.3l-2.7 1c-.2-3.3-.6-8.7-6.7-8.7h-14.8v48.1c0 7 3.2 7.8 7.5 7.8h1.7v2.7c-3.5 0-9.8-.4-14.7-.4-5.4 0-11.8.4-15.3.4v-2.7h1.7c5 0 7.5-.4 7.5-7.6V543h-14.8m35.6 59c-3.6 0-9.9-.4-14.7-.4-5.4 0-11.7.4-15.3.4h-.4v-3.5h2.1c5-.1 7-.2 7.1-7.2v-47.9h-14.4v-.8h15.2v48.7c0 7.2-2.9 8-7.9 8h-1.3v1.9c3.6 0 9.6-.3 14.9-.3 4.7 0 10.7.3 14.3.3v-1.9h-1.3c-4.4 0-7.9-1.1-7.9-8.2v-48.5h15.2c6.1 0 6.9 5.2 7.1 8.5l2-.7c0-2.3 0-4.7.2-7.1l.9-6.9-1.4-.2c-.4 2.6-3 2.8-5.2 2.7h-47.1c-2.1 0-4.4-.1-5.2-2.6h-1.5c0 2.5-.2 4.9-.5 7.3-.3 2.5-.7 4.9-1 7.3h1.9c1.2-6.3 2-8.3 8.7-8.2v.8c-6.7.1-6.5 1.2-8 7.9l-.1.3h-3.5l.1-.5c.4-2.5.8-5.1 1.1-7.7.4-2.5.5-5 .5-7.6v-.4h2.9l.1.3c.6 2.3 2.3 2.3 4.6 2.3h47.1c2.5 0 4.4-.1 4.5-2.4v-.4l.4.1 2.5.4-.1.4c-.4 2.4-.7 4.9-1 7.3-.2 2.4-.2 4.8-.2 7.3v.3l-.3.1-3.2 1.2v-.5c-.2-3.4-.6-8.3-6.3-8.3h-14.4v47.7c.1 6.8 2.8 7.3 7.1 7.4h2.1v3.5h-.4m19.1-3.3h1.3c3.3 0 6.7-.4 6.7-5.1v-47.3c0-4.7-3.4-5.2-6.7-5.2h-1.3v-2.7c5.5 0 14.9.4 22.5.4s17-.4 23.1-.4c-.2 3.9-.1 9.9.2 13.8l-2.7.7c-.4-5.9-1.5-10.6-11-10.6h-12.5v23.7h10.7c5.4 0 6.6-3.1 7.1-7.9h2.7c-.2 3.5-.3 7-.3 10.6 0 3.4.1 6.9.3 10.3l-2.7.5c-.5-5.4-.8-8.9-7.1-8.9h-10.8v21c0 5.9 5.2 5.9 11 5.9 10.8 0 15.6-.7 18.3-11l2.5.6c-1.2 4.8-2.3 9.6-3.1 14.4-5.8 0-16.2-.4-24.3-.4-8.1 0-18.9.4-24 .4v-2.8m48.1 2.4c.8-4.6 1.8-9.1 2.9-13.7l-1.8-.4c-2.7 10.1-7.9 11-18.6 10.9-5.7 0-11.4 0-11.4-6.3v-21.4h11.2c6.3-.1 6.9 3.7 7.4 8.9l2-.4c-.2-3.3-.3-6.7-.3-10 0-3.4.1-6.8.3-10.2h-2c-.5 4.7-2 8-7.5 8h-11.1v-24.5h13c9.4-.1 11 4.8 11.4 10.5l2-.5c-.2-2.6-.3-5.8-.3-8.8 0-1.5 0-3 .1-4.3-6.1 0-15.3.4-22.7.4-7.4 0-16.6-.3-22.1-.4v1.9h.9c3.2 0 7.1.6 7.1 5.6v47.3c0 5-3.9 5.5-7.1 5.6h-1v1.9c5.3 0 15.7-.3 23.6-.3 8-.2 18.2.1 24 .2m.3.7c-5.8 0-16.2-.4-24.3-.4-8.1 0-18.9.4-24 .4h-.4v-3.5H275.9c3.3-.1 6.2-.3 6.3-4.8v-47.3c0-4.4-3-4.7-6.3-4.8h-1.7v-3.5h.4c5.5 0 14.9.4 22.5.4s17-.4 23.1-.4h.4v.4c-.1 1.4-.1 3-.1 4.7 0 3.1.1 6.5.3 9.1v.3l-.3.1-3.2.8v-.5c-.5-5.9-1.3-10.1-10.6-10.2h-12.2v22.9h10.4c5.2-.1 6.1-2.7 6.7-7.6v-.4h3.5v.4c-.2 3.5-.3 7-.3 10.6 0 3.4.1 6.8.3 10.3v.3l-.3.1-3.1.6v-.4c-.6-5.5-.7-8.5-6.7-8.6h-10.4v20.7c0 5.5 4.7 5.5 10.6 5.5 10.9-.1 15.2-.6 18-10.7l.1-.4.4.1 2.9.7-.1.4c-1.2 4.8-2.3 9.6-3.1 14.3l-.1.3h-.4m26.9-32.8h4.4c9 0 13.9-3.4 13.9-14.1 0-8-5.1-13.2-13.2-13.2-2.7 0-3.9.3-5.1.4v26.9zm-11.6-20.9c0-6.6-3.6-6.9-6.4-6.9h-1.6v-2.7c2.9 0 8.5.4 14 .4 5.4 0 9.8-.4 14.5-.4 11.4 0 21.5 3.1 21.5 15.9 0 8.1-5.4 13.1-12.6 15.9l15.4 23.1c2.5 3.8 4.3 4.9 8.8 5.4v2.7c-3 0-5.9-.4-8.9-.4-2.8 0-5.7.4-8.5.4-7-9.1-12.9-18.9-18.8-29.3h-6v19.3c0 7 3.2 7.2 7.4 7.2h1.6v2.7c-5.2 0-10.4-.4-15.5-.4-4.3 0-8.6.4-13.1.4v-2.7h1.6c3.3 0 6.4-1.5 6.4-4.9v-45.7m16.2 20.5c8.9-.1 13.5-3.2 13.5-13.7 0-7.9-4.9-12.8-12.8-12.8-2.4 0-3.6.2-4.7.3v26.2h4zm-4.5.8h-.4v-27.7h.3c1.2-.1 2.5-.3 5.2-.3 8.2 0 13.6 5.3 13.6 13.6 0 10.8-5.2 14.5-14.3 14.5h-4.4v-.1zm0 2.5h6.2l.1.2c5.9 10.4 11.8 20.1 18.5 29.1 2.8 0 5.7-.4 8.5-.4 2.9 0 5.7.3 8.5.4v-2c-4.2-.5-6.2-1.8-8.7-5.5L367 570.2l.4-.2c7.1-2.8 12.3-7.6 12.3-15.6 0-12.5-9.8-15.4-21.1-15.5-4.8 0-9.1.4-14.5.4-5.3 0-10.7-.3-13.6-.4v1.9h1.2c2.8 0 6.8.5 6.8 7.3V594c0 3.6-3.4 5.3-6.8 5.3h-1.2v1.9c4.4 0 8.5-.4 12.7-.4 5.1 0 10.1.3 15.2.4v-1.9h-1.2c-4.1 0-7.8-.5-7.8-7.6V572h.3zm42.1 30c-3 0-5.9-.4-8.9-.4-2.8 0-5.6.4-8.8.2-6.9-9.1-12.9-18.8-18.7-29.1h-5.3v18.9c.1 6.8 2.8 6.7 7 6.8h2v3.5h-.4c-5.2 0-10.4-.4-15.5-.4-4.3 0-8.6.4-13.1.4h-.4v-3.5h2c3.3 0 6-1.4 6-4.5V548c-.1-6.4-3.2-6.4-6-6.5h-2V538h.4c2.9 0 8.5.4 14 .4 5.4 0 9.7-.4 14.5-.4 11.4 0 21.9 3.2 21.9 16.3 0 8.2-5.4 13.2-12.4 16.1l15.2 22.7c2.5 3.7 4.1 4.7 8.5 5.2h.3v3.4h-.3m61.4-17.8l.2-.2v-33.9c0-7.4-5.1-8.5-7.9-8.5h-2v-2.7c4.2 0 8.4.4 12.6.4 3.7 0 7.4-.4 11.1-.4v2.7h-1.4c-3.8 0-8 .7-8 11.5v41.1c0 3.2.1 6.3.5 9.1H455l-46.5-51.9v37.2c0 7.9 1.5 10.6 8.5 10.6h1.5v2.7c-3.9 0-7.8-.4-11.6-.4-4.1 0-8.2.4-12.3.4v-2.7h1.3c6.2 0 8.1-4.2 8.1-11.5v-38.1c0-5-4.2-8.1-8.2-8.1h-1.2v-2.7c3.4 0 7 .4 10.4.4 2.7 0 5.3-.4 8-.4l40.2 45.4m-.2-.2zm.2.2l.3-.3-.3.3zm1.8 18.7h3c-.4-2.7-.5-5.7-.5-8.7v-41.1c0-10.8 4.6-11.8 8.4-11.9h.9V539c-3.5 0-7.1.4-10.7.4-4.1 0-8.2-.3-12.3-.4v1.9h1.6c2.8 0 8.3 1.2 8.3 8.9l-.1 34.1-.2.2-.3.3L413 539c-2.7 0-5.3.4-8 .4-3.4 0-6.7-.3-10-.4v1.9h.8c4.2 0 8.6 3.2 8.6 8.5v38c0 7.2-2 11.9-8.5 11.9h-.9v1.9c3.9 0 7.9-.3 11.9-.3 3.8 0 7.5.3 11.3.3v-1.9H417c-7.1 0-8.9-3.1-8.9-11v-38.2l46.9 52.5zm3.4.8l-3.7-.1-45.9-51.1v36.2c.1 7.9 1.3 10.1 8.1 10.2h1.9v3.5h-.4c-3.9 0-7.8-.4-11.7-.4-4 0-8.2.4-12.3.4h-.4v-3.5h1.6c6 0 7.7-3.9 7.7-11.1v-38c0-4.8-4-7.7-7.8-7.7h-1.6v-3.5h.4c3.4 0 7 .4 10.4.4 2.7 0 5.3-.4 8.3-.2l40 44.5v-33.2c0-7.2-4.8-8.1-7.5-8.1h-2.4v-3.5h.4c4.3 0 8.4.4 12.7.4 3.7 0 7.4-.4 11.1-.4h.4v3.5H466c-3.7.1-7.6.4-7.7 11.1v41.1c0 3.2.1 6.3.5 9.1v.4h-.4m36.6-54.7h-.2l-8.4 25.6h16.9l-8.3-25.6zm-13.2 40c-.9 3.1-2 5.4-2 7 0 2.7 3.8 3.2 6.8 3.2h1v2.7c-3.6-.2-7.3-.4-10.9-.4-3.3 0-6.5.2-9.8.4v-2.7h.6c3.5 0 6.5-2.1 7.8-5.9l14.5-41.5c1.2-3.3 2.8-7.9 3.4-11.2 2.9-1 6.5-2.8 8.2-3.9.3-.1.4-.2.7-.2.3 0 .4 0 .6.3.3.7.5 1.5.8 2.3l16.6 47.2c1.1 3.2 2.2 6.5 3.3 9.2 1.1 2.5 3 3.6 6 3.6h.5v2.7c-4.1-.2-8.1-.4-12.5-.4s-9 .2-13.6.4v-2.7h1c2.1 0 5.6-.4 5.6-2.6 0-1.2-.8-3.6-1.8-6.5l-3.5-10.5h-20.5l-2.8 9.5m12.8-39.9l.2-.1-.2.1zm-7.7 25.1h15.8l-7.9-24.2-7.9 24.2zm-1 .8l8.7-26.4h.5v.4h-.1.1v-.4h.3l8.6 26.4h-18.1zm18.4 26.5c4.5-.2 8.9-.3 13.2-.3 4.2 0 8.1.2 12.1.3v-1.9h-.1c-3.1 0-5.2-1.2-6.3-3.9-1.2-2.7-2.3-6.1-3.3-9.3L503.1 539c-.3-.7-.5-1.5-.8-2.2l-.1-.1h-.2c-.2 0-.3.1-.5.1-1.7 1.1-5.4 2.9-8 3.6-.6 3.4-2.2 7.9-3.4 11.3l-14.4 41.5c-1.4 3.9-4.6 6.2-8.2 6.1h-.1v1.9c3.1-.2 6.2-.3 9.4-.3 3.5 0 7.1.2 10.5.3v-1.9h-.6c-2.9 0-7.1-.4-7.2-3.6 0-1.8 1.1-4.1 2-7.2l.4.1-.4-.1 3-9.7h21.1l3.6 10.7c1 2.9 1.8 5.3 1.8 6.6-.1 2.8-3.9 3-6 3h-.6v2.1h-.1zm25.6.8c-4.1-.2-8.1-.4-12.4-.4-4.4 0-8.9.2-13.5.4h-.4v-3.5h1.4c2.1 0 5.2-.5 5.2-2.2 0-1-.8-3.5-1.8-6.4l-3.4-10.2h-20l-2.8 9.1c-.9 3.1-2 5.5-2 6.9 0 2.2 3.4 2.7 6.4 2.7h1.4v3.5h-.4c-3.6-.2-7.3-.4-10.9-.4-3.2 0-6.5.2-9.7.4h-.4v-3.5h.9c3.4 0 6.2-1.9 7.5-5.6l14.5-41.5c1.2-3.3 2.8-7.9 3.6-11.5 2.8-1 6.5-2.8 8.2-3.9.2-.1.5-.2.9-.2.2 0 .7.1 1 .5.3.7.5 1.5.8 2.3l16.6 47.3c1.1 3.2 2.1 6.5 3.3 9.2 1.1 2.4 2.7 3.4 5.6 3.4h.9v3.5l-.5.1m4-58.9c-6.8 0-7 1.6-8.4 8.2h-2.7c.4-2.5.8-5.1 1.1-7.7.4-2.5.5-5.1.5-7.7h2.2c.7 2.7 3 2.6 5.4 2.6h46.6c2.4 0 4.7-.1 4.9-2.8l2.2.4c-.3 2.4-.7 4.9-1 7.3-.2 2.4-.2 4.9-.2 7.3l-2.7 1c-.2-3.3-.6-8.7-6.7-8.7h-14.8v48.1c0 7 3.2 7.8 7.5 7.8h1.7v2.7c-3.5 0-9.8-.4-14.7-.4-5.4 0-11.7.4-15.3.4v-2.7h1.7c5 0 7.5-.4 7.5-7.6V543h-14.8m35.6 59c-3.5 0-9.9-.4-14.7-.4-5.4 0-11.7.4-15.3.4h-.4v-3.5h2.1c5-.1 7-.2 7.1-7.2v-47.9h-14.4v-.8h15.2v48.7c0 7.2-2.9 8-7.9 8h-1.3v1.9c3.6 0 9.6-.4 14.9-.4 4.7 0 10.8.3 14.3.4v-1.9h-1.3c-4.3 0-7.9-1.1-7.9-8.2v-48.5h15.2c6.1 0 6.9 5.2 7 8.5l2-.7c0-2.3 0-4.7.2-7.1.2-2.3.6-4.6.9-6.9l-1.4-.2c-.4 2.6-3 2.8-5.2 2.7h-47.1c-2.1 0-4.4-.1-5.3-2.6h-1.5c0 2.5-.2 4.9-.6 7.3-.2 2.5-.7 4.9-1 7.3h1.9c1.2-6.3 2-8.3 8.7-8.2v.8c-6.7.1-6.5 1.2-8 7.9l-.1.3h-3.5l.1-.5c.4-2.5.8-5.1 1.1-7.7.4-2.5.5-5 .5-7.6v-.4h2.9l.1.3c.6 2.3 2.3 2.3 4.6 2.3h47.1c2.5 0 4.3-.1 4.5-2.4v-.4l.4.1 2.6.4-.1.4c-.4 2.4-.7 4.9-1 7.3-.2 2.4-.2 4.9-.2 7.3v.3l-.3.1-3.2 1.2v-.5c-.2-3.4-.6-8.3-6.3-8.3h-14.4v47.7c.1 6.8 2.8 7.3 7.1 7.4h2.1v3.5h-.2m19.5-3.3h1.3c3.3 0 6.7-.4 6.7-5.1v-47.3c0-4.7-3.4-5.2-6.7-5.2H589v-2.7c3.5 0 8.9.4 13.4.4s10-.4 14.2-.4v2.7h-1.3c-3.3 0-6.7.4-6.7 5.2v47.3c0 4.7 3.4 5.1 6.7 5.1h1.3v2.7c-4.3 0-9.8-.4-14.3-.4-4.4 0-9.8.4-13.3.4v-2.7m27.2 2.4v-1.9h-.9c-3.2 0-7.1-.6-7.1-5.6v-47.3c0-5 3.8-5.6 7.1-5.6h.9V539c-4.2 0-9.4.4-13.8.4-4.3 0-9.5-.3-13-.4v1.9h.9c3.2 0 7.1.6 7.1 5.6v47.3c0 5-3.9 5.6-7.1 5.6h-.9v1.9c3.5 0 8.6-.3 12.9-.3 4.4-.1 9.6.2 13.9.3m.4.7c-4.4 0-9.8-.4-14.3-.4-4.4 0-9.8.4-13.3.4h-.4v-3.5H590.3c3.3-.1 6.3-.3 6.3-4.8v-47.3c0-4.4-3-4.7-6.3-4.8h-1.7v-3.5h.4c3.5 0 9 .4 13.4.4 4.5 0 9.9-.4 14.2-.4h.4v3.5H615.3c-3.3.1-6.3.4-6.3 4.8v47.3c0 4.4 3 4.7 6.3 4.8h1.6v3.5h-.3m37.4-3c17.5 0 20.6-15.5 20.6-28.6 0-13.2-7.1-29.2-22.1-29.2-15.8 0-20.5 14.1-20.5 26.2-.1 16.2 7.3 31.6 22 31.6m-1.4-61.8c19.3 0 34.6 11.9 34.6 31.2 0 20.8-14.9 34.6-34.1 34.6-19.2 0-33.8-13-33.8-32.4 0-18.8 14.5-33.4 33.3-33.4m-21.1 30.2c0-12.2 4.8-26.6 20.9-26.6 15.3 0 22.5 16.3 22.5 29.6 0 13.2-3.1 29-21 29v-.8c17.2 0 20.2-15.1 20.2-28.2s-7.1-28.8-21.7-28.8c-15.5 0-20.1 13.8-20.1 25.8 0 16.1 7.4 31.2 21.7 31.2v.8c-15 0-22.4-15.7-22.5-32m-12.6 3.2c0-19 14.7-33.7 33.7-33.7v.8c-18.6 0-32.9 14.4-33 32.9 0 19.2 14.4 32 33.4 32 19.1 0 33.7-13.6 33.8-34.2 0-19-15.1-30.7-34.2-30.8v-.8c19.4 0 35 12.1 35 31.6 0 21-15.1 35-34.5 35s-34.2-13.2-34.2-32.8m129.2 13.3l.2-.2v-33.9c0-7.4-5.2-8.5-7.9-8.5h-2v-2.7c4.2 0 8.4.4 12.6.4 3.7 0 7.4-.4 11.1-.4v2.7h-1.4c-3.8 0-8 .7-8 11.5v41.1c0 3.2.1 6.3.6 9.1h-3.4l-46.5-51.9v37.2c0 7.9 1.5 10.6 8.5 10.6h1.5v2.7c-3.9 0-7.8-.4-11.6-.4-4.1 0-8.2.4-12.3.4v-2.7h1.3c6.2 0 8.1-4.2 8.1-11.5v-38.1c0-5-4.1-8.1-8.2-8.1h-1.2v-2.7c3.4 0 7 .4 10.4.4 2.7 0 5.3-.4 8-.4l40.2 45.4m-.2-.2zm.2.2l.3-.3-.3.3zm1.8 18.7h3c-.4-2.7-.5-5.7-.5-8.7v-41.1c0-10.9 4.6-11.8 8.4-11.9h1V539c-3.6 0-7.1.4-10.7.4-4.1 0-8.2-.3-12.2-.4v1.9h1.6c2.8 0 8.2 1.3 8.2 8.9l-.1 34.1-.2.2-.3.3-40.2-45.4c-2.7 0-5.3.4-8 .4-3.3 0-6.7-.3-10-.4v1.9h.8c4.2 0 8.6 3.2 8.6 8.5v38.1c0 7.2-2 11.8-8.5 11.9h-.9v1.9c3.9 0 7.9-.3 11.9-.3 3.8 0 7.5.3 11.3.3v-1.9h-1.2c-7.1 0-8.9-3.1-8.9-11v-38.2l46.9 52.4zm3.4.8l-3.7-.1-45.8-51.1v36.2c.1 7.9 1.3 10.1 8.1 10.2h1.9v3.5h-.4c-3.9 0-7.8-.4-11.7-.4-4.1 0-8.2.4-12.3.4h-.4v-3.5H690.7c6 0 7.7-3.9 7.7-11.1v-38.1c0-4.8-3.9-7.7-7.8-7.7H689v-3.5h.4c3.5 0 7 .4 10.4.4 2.7 0 5.3-.4 8.3-.2l39.7 44.7v-33.2c0-7.2-4.8-8.1-7.5-8.1H738v-3.5h.4c4.2 0 8.4.4 12.6.4 3.7 0 7.4-.4 11.1-.4h.4v3.5H760.7c-3.7.1-7.6.4-7.6 11.1V594c0 3.2.1 6.3.5 9.1l.1.4h-.4m36.6-54.8h-.2l-8.4 25.6h16.9l-8.3-25.6zm-13.2 40c-.9 3.1-2 5.4-2 7 0 2.7 3.8 3.2 6.8 3.2h1v2.7c-3.6-.2-7.3-.4-10.9-.4-3.3 0-6.5.2-9.7.4v-2.7h.5c3.5 0 6.5-2.1 7.9-5.9l14.5-41.5c1.2-3.3 2.8-7.9 3.3-11.2 2.9-1 6.5-2.8 8.2-3.9.3-.1.4-.2.7-.2.3 0 .4 0 .6.3.3.7.6 1.5.8 2.3L815 586c1.1 3.2 2.2 6.5 3.4 9.2 1.1 2.5 3 3.6 6 3.6h.6v2.7c-4.1-.2-8.1-.4-12.5-.4s-8.9.2-13.6.4v-2.7h1c2.1 0 5.6-.4 5.6-2.6 0-1.2-.8-3.6-1.8-6.5l-3.5-10.5h-20.5l-3 9.5m12.8-39.9l.2-.1-.2.1zm-7.6 25.1h15.8l-7.9-24.2-7.9 24.2zm-1.1.8l8.7-26.3h.5v.4h-.1.1v-.4h.3l8.5 26.3h-18zm18.4 26.5c4.5-.2 8.9-.3 13.2-.3 4.2 0 8.1.2 12.1.3v-1.9h-.1c-3.1 0-5.2-1.2-6.3-3.9-1.2-2.7-2.3-6.1-3.3-9.2L798 539c-.3-.7-.5-1.5-.8-2.2l-.1-.1h-.1c-.2 0-.3.1-.5.1-1.8 1.1-5.4 2.9-8 3.6-.6 3.4-2.2 7.9-3.4 11.3l-14.5 41.5c-1.4 3.9-4.5 6.2-8.2 6.1h-.1v1.9c3.1-.2 6.2-.3 9.4-.3 3.5 0 7.1.2 10.5.3v-1.9h-.6c-2.9 0-7.1-.4-7.2-3.6 0-1.8 1.1-4.1 2-7.2l.4.1-.4-.1 3-9.7h21.1l3.6 10.7c1 2.9 1.8 5.3 1.8 6.6-.1 2.8-3.9 3-6 3h-.6v2.1h-.1zm25.6.8c-4.1-.2-8.1-.4-12.4-.4-4.4 0-8.9.2-13.5.4h-.4v-3.5h1.4c2.1 0 5.2-.5 5.2-2.2 0-1-.8-3.5-1.8-6.4l-3.4-10.2H780l-2.8 9.1c-.9 3.1-2 5.5-2 6.9 0 2.2 3.4 2.8 6.4 2.8h1.4v3.5h-.4c-3.6-.2-7.3-.4-10.9-.4-3.2 0-6.5.2-9.7.4h-.4v-3.5h.9c3.4 0 6.2-2 7.5-5.6l14.5-41.5c1.2-3.3 2.8-7.9 3.6-11.4 2.8-1 6.5-2.8 8.2-3.9.2-.1.5-.2.9-.2.2 0 .7 0 1 .5.3.7.5 1.5.8 2.3l16.6 47.3c1.1 3.2 2.2 6.5 3.3 9.2 1.1 2.4 2.7 3.3 5.6 3.4h.9v3.5l-.6-.1m22.8-9.2c0 3.6 2.5 4.7 5.4 5.1 3.7.3 7.8.3 11.9-.2 3.8-.4 7-2.6 8.7-4.9 1.4-2 2.3-4.5 2.8-6.5h2.6c-1 5.1-2.3 10.2-3.4 15.4-7.9 0-15.9-.4-23.8-.4-8 0-15.9.4-23.9.4V599h1.2c3.3 0 6.8-.4 6.8-6v-46.4c0-4.7-3.5-5.2-6.8-5.2H828v-2.7c4.8 0 9.5.4 14.3.4 4.6 0 9.1-.4 13.7-.4v2.7h-2.3c-3.4 0-6.1.1-6.1 4.9v46.5m27.8 8.5c1-4.9 2.2-9.7 3.2-14.6h-1.9c-.6 2-1.4 4.4-2.8 6.4-1.7 2.3-5 4.5-9 5-2.4.2-4.7.4-6.9.4-1.7 0-3.4-.1-5.1-.2-2.9-.3-5.8-1.6-5.8-5.5v-46.6c0-5 3.2-5.3 6.5-5.3h1.9V539c-4.4 0-8.8.4-13.3.4-4.7 0-9.3-.3-13.9-.4v1.9h.9c3.2 0 7.2.6 7.2 5.5v46.4c0 5.8-3.9 6.5-7.2 6.5h-.9v1.9c7.8 0 15.6-.3 23.5-.3s15.8.3 23.6.4m.3.7c-8 0-15.9-.4-23.8-.4-8 0-15.9.4-23.9.4h-.4v-3.5H829.3c3.3-.1 6.4-.3 6.4-5.7v-46.4c0-4.4-3.1-4.7-6.4-4.8h-1.6v-3.5h.4c4.8 0 9.5.4 14.3.4 4.6 0 9.1-.4 13.7-.4h.4v3.5h-2.8c-3.5.1-5.7-.1-5.7 4.5v46.6c0 3.4 2.2 4.3 5.1 4.7 1.6.1 3.3.2 5 .2 2.2 0 4.5-.1 6.8-.4 3.7-.4 6.9-2.6 8.4-4.7 1.4-1.9 2.2-4.4 2.7-6.4l.1-.3h3.4l-.1.5c-1 5.2-2.3 10.2-3.4 15.4v.3h-.3m.7-56.4h1.1c1.2 0 1.8-.9 1.8-2.4s-.9-2-1.9-2h-1.1v4.4h.1zm-3.2 5v-.5c1.2-.2 1.4-.1 1.4-.9v-7c0-1-.1-1.3-1.3-1.3v-.5h4.9c1.7 0 3.2.8 3.2 2.5 0 1.4-.9 2.5-2.2 2.9l1.6 2.2c.7 1 1.6 1.9 2.1 2.2v.3H881c-.9 0-1.7-1.9-3.4-4.4h-1.1v3.2c0 .6.2.6 1.4.8v.5h-4.7zm4.8 2.7c4.3 0 7.5-3.6 7.5-7.7s-3.2-7.8-7.5-7.8-7.5 3.7-7.5 7.8c-.1 4.1 3.2 7.7 7.5 7.7m0-17.3c5.4 0 9.5 4.2 9.5 9.5s-4.1 9.5-9.5 9.5-9.5-4.1-9.5-9.5c-.1-5.3 4-9.5 9.5-9.5"/><path fill="#666" d="M944 665.1H55c-30.4 0-55-24.6-55-55V55C0 24.6 24.6 0 55 0h889c30.4 0 55 24.6 55 55v555.1c0 30.4-24.6 55-55 55zm50.5-55.9V55.9c0-28.4-23-51.4-51.4-51.4H55.9c-28.4 0-51.4 23-51.4 51.4v553.2c0 28.4 23 51.4 51.4 51.4h887.2c28.4 0 51.4-23 51.4-51.3z"/></g><use xlink:href="#a" overflow="visible" fill="none" stroke="#666" stroke-width="7" stroke-miterlimit="10"/></svg>