<svg width="163" height="163" fill="none" xmlns="http://www.w3.org/2000/svg"><g clip-path="url(#clip0)"><path d="M81.15 158.3c42.609 0 77.15-34.541 77.15-77.15C158.3 38.541 123.759 4 81.15 4 38.541 4 4 38.541 4 81.15c0 42.609 34.541 77.15 77.15 77.15z" stroke="#636363" stroke-width="8" stroke-miterlimit="10"/><path d="M57.52 85.24a15.32 15.32 0 01-5.88 3.9 21.54 21.54 0 01-7.62 1.31c-4.713 0-8.38-1.46-11-4.38-2.62-2.92-3.953-7.17-4-12.75v-7.38c0-5.647 1.237-9.997 3.71-13.05 2.46-3.06 6.07-4.58 10.8-4.58 4.453 0 7.81 1.097 10.07 3.29 2.26 2.193 3.57 5.64 3.93 10.34h-8.07c-.22-2.61-.77-4.39-1.63-5.34a5.24 5.24 0 00-4.06-1.42 5.31 5.31 0 00-4.87 2.45c-1 1.64-1.54 4.24-1.58 7.8v7.44c0 3.74.56 6.46 1.68 8.16 1.11 1.69 2.95 2.54 5.5 2.54a7.14 7.14 0 004-1l.74-.51v-7.5h-5.87v-6.25h14.15v16.93zm16.67-36.37l7.75 29.66 7.72-29.66h10.81v41h-8.31v-11.1l.76-17.1-8.19 28.21h-5.64L70.9 61.69l.76 17.08v11.11h-8.29v-41l10.82-.01zm41.18 26.59v14.42h-8.28v-41h14a12.828 12.828 0 019.71 3.78 13.552 13.552 0 013.61 9.8c0 4-1.19 7.173-3.57 9.52-2.38 2.347-5.687 3.51-9.92 3.49l-5.55-.01zm0-6.9h5.69a4.508 4.508 0 003.66-1.55 6.821 6.821 0 001.3-4.51 8.139 8.139 0 00-1.32-4.88 4.273 4.273 0 00-3.52-1.85h-5.81v12.79zM49.18 35.52l3.28-2.7a.66.66 0 00-.39-1.17l-4.22-.25a.67.67 0 01-.57-.42l-1.55-4a.67.67 0 00-1.24 0l-1.55 3.94a.67.67 0 01-.57.42l-4.24.26a.65.65 0 00-.38 1.17l3.28 2.69a.68.68 0 01.22.67l-1.07 4.14a.66.66 0 001 .72l3.56-2.29a.65.65 0 01.71 0l3.58 2.29a.66.66 0 001-.72l-1.07-4.09a.66.66 0 01.22-.66zm18.19 0l3.28-2.7a.66.66 0 00-.39-1.17l-4.22-.25a.67.67 0 01-.57-.42l-1.55-4a.659.659 0 00-1.23 0l-1.55 3.94a.68.68 0 01-.58.42l-4.19.3a.65.65 0 00-.43 1.13l3.28 2.69a.66.66 0 01.22.67l-1.07 4.14a.66.66 0 001 .72l3.57-2.29a.64.64 0 01.7 0l3.58 2.29a.66.66 0 001-.72l-1.07-4.09a.66.66 0 01.22-.66zm18.19 0l3.28-2.7a.66.66 0 00-.38-1.17l-4.22-.25a.68.68 0 01-.58-.42l-1.55-4a.66.66 0 00-1.23 0l-1.51 3.98a.68.68 0 01-.58.42l-4.23.26a.65.65 0 00-.43 1.13l3.24 2.72a.66.66 0 01.22.67l-1.03 4.11a.66.66 0 001 .72l3.56-2.29a.64.64 0 01.7 0l3.55 2.29a.66.66 0 001-.72l-1-4.09a.7.7 0 01.19-.66zm18.2 0l3.27-2.7a.664.664 0 00.21-.715.655.655 0 00-.59-.455l-4.22-.25a.683.683 0 01-.58-.42l-1.55-4a.662.662 0 00-.987-.305.66.66 0 00-.243.305l-1.55 3.94a.669.669 0 01-.57.42l-4.24.26a.65.65 0 00-.34 1.17l3.27 2.69a.67.67 0 01.23.67l-1.11 4.14a.66.66 0 001 .72l3.56-2.29a.65.65 0 01.71 0l3.58 2.29a.66.66 0 001-.72l-1.07-4.09a.663.663 0 01.22-.66zm18.19 0l3.28-2.7a.662.662 0 00.208-.72.656.656 0 00-.598-.45l-4.22-.25a.67.67 0 01-.57-.42l-1.55-4a.658.658 0 00-.615-.42.662.662 0 00-.615.42l-1.56 3.94a.65.65 0 01-.57.42l-4.24.26a.649.649 0 00-.38 1.16l3.28 2.69a.686.686 0 01.22.67l-1.07 4.11a.66.66 0 001 .72l3.57-2.29a.64.64 0 01.7 0l3.58 2.29a.66.66 0 001-.72l-1.07-4.09a.664.664 0 01.22-.62z" fill="#636363"/><path fill-rule="evenodd" clip-rule="evenodd" d="M64.51 108.84h-1.88v4.75h1.83a1.706 1.706 0 001.45-.64 2.78 2.78 0 00.48-1.71c-.02-1.6-.63-2.4-1.88-2.4zm57.15 0h-1.17v10.59h1a2.683 2.683 0 002.27-.85 5.008 5.008 0 00.69-2.93v-2.77a5.675 5.675 0 00-.62-3.11 2.53 2.53 0 00-2.17-.93z" fill="#636363"/><path fill-rule="evenodd" clip-rule="evenodd" d="M17.37 98.99a65.868 65.868 0 0063.74 49.255 65.874 65.874 0 0063.74-49.255H17.37zm21.69 19.78a1.94 1.94 0 001.83.89 2.129 2.129 0 001.75-.62 4.129 4.129 0 00.55-2.24h3.18a5.92 5.92 0 01-1.54 4.13 5.368 5.368 0 01-1.856 1.11 5.367 5.367 0 01-2.144.29 4.999 4.999 0 01-4.15-1.78 7.87 7.87 0 01-1.44-5.07v-2.71a7.67 7.67 0 011.55-5 5.089 5.089 0 014.14-1.78 5.14 5.14 0 014 1.45 6.68 6.68 0 011.54 4.19H43.2a4.38 4.38 0 00-.52-2.33 2.05 2.05 0 00-1.75-.64 2.003 2.003 0 00-1.83.9 6.319 6.319 0 00-.57 3v3a7 7 0 00.53 3.21zm18.49 3.34h-9.18v-15.95h9.14v2.68h-5.9v3.77h5v2.59h-5v4.23h5.94v2.68zm12.54 0h-3.46l-2.4-5.82h-1.6v5.82h-3.26v-15.95h5.14a5.196 5.196 0 013.74 1.25 4.692 4.692 0 011.32 3.57 4.63 4.63 0 01-2.31 4.44l2.79 6.53.04.16zm11.51-13.26h-3.94v13.26h-3.23v-13.27h-3.88v-2.68h11l.05 2.69zm5.22 13.26H83.6v-15.95h3.22v15.95zm11.55-13.27h-5.63v4.09h5v2.67h-5v6.5h-3.22v-15.94h8.85v2.68zm5.2 13.26h-3.2v-15.94h3.22l-.02 15.94zm11.87 0h-9.16v-15.94h9.09v2.68h-5.92v3.77h5v2.59h-5v4.23h5.94l.05 2.67zm12.21-6.72a6.938 6.938 0 01-1.66 4.93 5.894 5.894 0 01-4.57 1.79h-4.15v-15.94h4.22a5.816 5.816 0 014.45 1.77 6.912 6.912 0 011.69 4.86l.02 2.59z" fill="#636363"/></g><defs><clipPath id="clip0"><path fill="#fff" d="M0 0h162.31v162.31H0z"/></clipPath></defs></svg>