<svg width="506" height="506" fill="none" xmlns="http://www.w3.org/2000/svg"><g clip-path="url(#clip0)"><path d="M267.334 4.7l12.341 9.038a24.21 24.21 0 0021.942 3.527l14.501-4.797a24.218 24.218 0 0127.239 8.817l8.912 12.398a24.202 24.202 0 0019.8 10.087l15.268-.08a24.22 24.22 0 0123.202 16.86l4.646 14.549a24.211 24.211 0 0015.708 15.712l14.546 4.638a24.21 24.21 0 0116.855 23.199l-.08 15.281a24.24 24.24 0 0010.094 19.795l12.412 8.897a24.212 24.212 0 018.815 27.272l-4.725 14.514a24.228 24.228 0 003.473 21.947l9.045 12.344a24.217 24.217 0 010 28.674l-9.045 12.345a24.227 24.227 0 00-3.473 21.876l4.796 14.496a24.22 24.22 0 01-8.816 27.273l-12.403 8.914a24.228 24.228 0 00-10.093 19.795l.079 15.281a24.21 24.21 0 01-16.855 23.199l-14.545 4.638a24.221 24.221 0 00-15.709 15.713l-4.646 14.548a24.23 24.23 0 01-23.202 16.859l-15.268-.079a24.186 24.186 0 00-19.799 10.087l-8.992 12.398a24.216 24.216 0 01-27.274 8.861l-14.502-4.796a24.201 24.201 0 00-21.941 3.526l-12.341 9.038a24.201 24.201 0 01-28.668 0l-12.341-9.038a24.21 24.21 0 00-21.942-3.526l-14.501 4.796a24.223 24.223 0 01-27.204-8.861l-8.912-12.398a24.202 24.202 0 00-19.8-10.087l-15.268.079a24.22 24.22 0 01-23.202-16.859l-4.645-14.548a24.22 24.22 0 00-15.71-15.713l-14.545-4.638a24.209 24.209 0 01-16.855-23.199l.08-15.281a24.238 24.238 0 00-10.094-19.795l-12.412-8.897a24.212 24.212 0 01-8.815-27.272l4.725-14.514a24.227 24.227 0 00-3.473-21.947l-9.045-12.344a24.215 24.215 0 010-28.674l9.045-12.345a24.22 24.22 0 003.473-21.876l-4.77-14.452a24.219 24.219 0 018.86-27.334l12.403-8.915a24.226 24.226 0 0010.094-19.795l-.08-15.281a24.215 24.215 0 0116.856-23.198l14.545-4.638A24.213 24.213 0 0090.807 75.08l4.645-14.549a24.222 24.222 0 0123.201-16.841l15.27.079a24.195 24.195 0 0019.799-10.087l8.921-12.398a24.224 24.224 0 0127.275-8.817l14.501 4.797a24.209 24.209 0 0021.941-3.527L238.702 4.7a24.203 24.203 0 0128.632 0z" fill="#FFC60D"/><path d="M253 445.662c106.378 0 192.615-86.258 192.615-192.662 0-106.404-86.237-192.662-192.615-192.662-106.378 0-192.615 86.258-192.615 192.662 0 106.404 86.237 192.662 192.615 192.662z" fill="#000"/><path d="M252.859 384.83c71.247 0 129.004-57.771 129.004-129.035S324.106 126.76 252.859 126.76c-71.247 0-129.004 57.771-129.004 129.035S181.612 384.83 252.859 384.83zM91.68 267.549a8.817 8.817 0 008.815-8.818 8.817 8.817 0 10-17.631 0c0 4.87 3.947 8.818 8.815 8.818zm319.996 0c4.869 0 8.815-3.948 8.815-8.818a8.816 8.816 0 10-17.63 0c0 4.87 3.946 8.818 8.815 8.818z" fill="#FFC60D"/><path d="M251.678 163.335l6.17 12.503 13.788 2.002-9.979 9.734 2.362 13.738-12.341-6.481-12.342 6.481 2.363-13.738-9.979-9.734 13.787-2.002 6.171-12.503zm-42.755 9.973l4.549 9.223 10.173 1.472-7.361 7.178 1.737 10.131-9.098-4.779-9.097 4.779 1.736-10.131-7.36-7.178 10.173-1.472 4.548-9.223zm85.509 0l4.549 9.223 10.173 1.472-7.361 7.178 1.736 10.131-9.097-4.779-9.097 4.779 1.736-10.131-7.361-7.178 10.173-1.472 4.549-9.223zm-42.754 146.37l6.17 12.503 13.788 2.002-9.979 9.734 2.362 13.738-12.341-6.481-12.342 6.481 2.363-13.738-9.979-9.734 13.787-2.002 6.171-12.503zm-42.755 0l4.549 9.223 10.173 1.472-7.361 7.178 1.737 10.131-9.098-4.779-9.097 4.779 1.736-10.131-7.36-7.178 10.173-1.472 4.548-9.223zm85.509 0l4.549 9.223 10.173 1.472-7.361 7.178 1.736 10.131-9.097-4.779-9.097 4.779 1.736-10.131-7.361-7.178 10.173-1.472 4.549-9.223zm-113.215-24.795h-14.669v-57.455l-14.307 5.529v-12.186l27.424-11.216h1.552v75.328zm59.741-31.099c0 10.393-1.886 18.349-5.659 23.869-3.773 5.519-9.153 8.273-16.141 8.262-6.923 0-12.268-2.678-16.035-8.033-3.767-5.355-5.721-13.015-5.862-22.978v-14.249c0-10.358 1.877-18.294 5.633-23.808 3.755-5.514 9.144-8.253 16.167-8.218 7.017 0 12.406 2.719 16.167 8.157 3.762 5.437 5.672 13.205 5.73 23.304v13.694zm-14.668-15.246c0-5.925-.588-10.369-1.763-13.332-1.176-2.962-3.001-4.432-5.475-4.408-4.654 0-7.067 5.422-7.237 16.268v18.719c0 6.067.588 10.578 1.763 13.535 1.175 2.957 3.027 4.427 5.554 4.409 2.35 0 4.113-1.384 5.289-4.153 1.175-2.769 1.786-7.016 1.833-12.741l.036-18.297zm62.888 15.246c0 10.393-1.883 18.349-5.65 23.869-3.767 5.519-9.148 8.273-16.141 8.262-6.929 0-12.277-2.678-16.044-8.033-3.767-5.355-5.713-13.015-5.836-22.978v-14.249c0-10.358 1.878-18.294 5.633-23.808 3.755-5.514 9.145-8.259 16.167-8.235 7.053 0 12.442 2.719 16.168 8.156 3.726 5.437 5.636 13.206 5.73 23.305l-.027 13.711zm-14.668-15.246c0-5.925-.588-10.369-1.764-13.332-1.175-2.962-3-4.432-5.474-4.408-4.643 0-7.052 5.422-7.228 16.268v18.719c0 6.067.587 10.578 1.763 13.535 1.19 2.963 3.032 4.409 5.553 4.409 2.351 0 4.114-1.384 5.29-4.153 1.175-2.769 1.786-7.016 1.833-12.741l.027-18.297zm19.296-14.416c0-4.579 1.267-8.315 3.8-11.207 2.532-2.892 5.95-4.338 10.252-4.338 4.302 0 7.737 1.419 10.305 4.258 2.568 2.84 3.852 6.661 3.852 11.463v3.774c0 4.644-1.275 8.38-3.826 11.207-2.55 2.827-5.959 4.238-10.225 4.232a13.265 13.265 0 01-10.253-4.232c-2.603-2.822-3.905-6.663-3.905-11.524v-3.633zm9.503 3.985a8.269 8.269 0 001.322 4.929 3.948 3.948 0 003.333 1.834 3.725 3.725 0 001.902-.506 3.727 3.727 0 001.377-1.407 9.201 9.201 0 001.216-5.008v-3.827a8.964 8.964 0 00-1.243-4.929 3.799 3.799 0 00-3.358-1.94 3.772 3.772 0 00-3.306 1.94 9.285 9.285 0 00-1.243 5.087v3.827zm7.29 51.142l-6.911-3.924 30.854-58.795 6.982 3.924-30.925 58.795zm12.862-12.812c0-4.644 1.29-8.389 3.87-11.234a13.22 13.22 0 0110.226-4.267 13.319 13.319 0 0110.278 4.214c2.586 2.804 3.879 6.655 3.879 11.551v3.765c0 4.621-1.258 8.351-3.773 11.19-2.515 2.839-5.941 4.259-10.279 4.259-4.372 0-7.833-1.429-10.384-4.286-2.551-2.857-3.823-6.645-3.817-11.365v-3.827zm9.556 4.029a8.243 8.243 0 001.366 4.859 3.929 3.929 0 003.279 1.966c2.857 0 4.355-2.057 4.496-6.172v-4.7a8.664 8.664 0 00-1.269-4.929 3.857 3.857 0 00-3.332-1.887c-3.033 0-4.546 2.646-4.54 7.936v2.927z" fill="#000"/><path d="M82.326 202.176l27.963 2.769-23.044-16.083 3.447-9.303 35.261 13.059-2.644 7.142-9.547-3.527-14.457-6.102 21.633 16.031-1.764 4.84-26.851-1.922 14.986 4.788 9.547 3.527-2.645 7.125-35.314-13.042 3.43-9.302zm57.062-53.928c3.914 3.175 6.206 6.566 6.876 10.176.67 3.609-.335 7.065-3.015 10.369-2.65 3.28-5.809 4.988-9.476 5.123-3.668.135-7.446-1.334-11.337-4.409l-4.998-4.047c-4.014-3.245-6.397-6.713-7.149-10.405-.753-3.691.211-7.186 2.891-10.484 2.639-3.25 5.821-4.92 9.547-5.008 3.726-.088 7.605 1.478 11.636 4.7l5.025 3.985zm-9.697 1.958c-2.639-2.134-4.901-3.345-6.788-3.633a5.331 5.331 0 00-5.712 6.904c.635 1.764 2.204 3.677 4.707 5.74l5.201 4.215c2.557 2.063 4.749 3.207 6.577 3.43a5.014 5.014 0 004.681-2.063 4.868 4.868 0 00.996-4.876c-.573-1.711-2.107-3.58-4.584-5.608l-5.078-4.109zm55.475-17.635l-6.321 4.215-22.92-14.364 13.682 20.527-6.321 4.215-20.857-31.276 6.321-4.206 22.92 14.373-13.699-20.554 6.303-4.197 20.892 31.267zm28.976-28.348l-11.275 3.597 3.041 9.497 13.329-4.259 1.922 6.004-20.566 6.569-11.46-35.825 20.531-6.543 1.921 6.032-13.284 4.25 2.706 8.464 11.266-3.606 1.869 5.82zm32.573-8.915l4.963-17.097 8.26-.326-9.142 24.345.529 13.632-7.687.3-.529-13.632-11.028-23.56 8.26-.318 6.374 16.656zm52.107 27.687l14.986-34.494 10.667 4.63c3.596 1.563 5.982 3.553 7.158 5.969 1.175 2.416 1.093 5.173-.247 8.27a9.284 9.284 0 01-3.13 4.021 7.476 7.476 0 01-4.407 1.393 6.566 6.566 0 012.424 4.215 10.028 10.028 0 01-.882 5.493c-1.454 3.342-3.473 5.476-6.056 6.376-2.583.899-5.615.608-9.097-.882l-11.416-4.991zm13.479-11.974l-4.002 9.223 4.407 1.931a3.804 3.804 0 003.35.071 5.387 5.387 0 002.442-2.831c1.346-3.098.914-5.173-1.296-6.225l-4.901-2.169zm2.203-5.07l3.624 1.578c2.732 1.176 4.713.356 5.941-2.46a5.29 5.29 0 00.511-3.774 4.417 4.417 0 00-2.644-2.363l-3.685-1.56-3.747 8.579zm39.017 40.86l-7.933-6.675-6.497 4.585-6.171-5.176 33.216-21.161 5.289 4.479-15.189 36.381-6.17-5.229 3.455-7.204zm-2.583-10.457l5.369 4.532 5.95-12.521-11.319 7.989zm38.567 47.914c-3.69 2.192-7.067 2.965-10.128 2.319-3.062-.647-5.707-2.666-7.934-6.058-2.351-3.527-2.968-7.019-1.851-10.475 1.116-3.457 3.831-6.593 8.145-9.408l5.289-3.466c4.32-2.833 8.292-4.038 11.918-3.615 3.624.432 6.577 2.381 8.86 5.873 2.283 3.491 2.997 6.657 2.248 9.699-.749 3.042-2.812 5.828-6.277 8.474l-4.169-6.375c2.174-1.505 3.479-2.851 3.914-4.039.432-1.173.105-2.645-.996-4.268-1.102-1.622-2.495-2.513-4.144-2.442-1.648.071-3.852.979-6.602 2.716l-5.907 3.827c-3.12 2.045-5.036 3.809-5.747 5.29-.705 1.464-.503 3.051.608 4.744 1.111 1.693 2.257 2.557 3.482 2.645 1.225.088 2.936-.502 5.131-1.816l4.16 6.375zm12.853 26.849l-4.487-1.764-10.27 3.157-2.23-7.257 35.949-11.039 2.23 7.257-15.682 4.814 4.584 1.111 13.857 3.06 2.724 8.896-18.961-5.449-16.926 16.657-2.644-8.615 11.856-10.828zM93.69 332.728a13.483 13.483 0 01-5.29-3.36 19.22 19.22 0 01-3.808-5.705c-1.698-3.826-1.834-7.324-.406-10.493 1.428-3.168 4.388-5.79 8.877-7.865l5.986-2.645c4.584-2.034 8.56-2.604 11.927-1.711 3.368.894 5.904 3.266 7.608 7.116 1.604 3.604 1.925 6.722.961 9.356-.964 2.633-3.285 4.937-6.964 6.912l-2.909-6.533c2.039-1.123 3.285-2.205 3.737-3.245a4.66 4.66 0 00-.308-3.809 4.713 4.713 0 00-3.747-3.069c-1.692-.229-3.984.282-6.893 1.543l-6.03 2.646c-3.032 1.349-5.034 2.777-6.012 4.302-.979 1.526-.996 3.307-.08 5.379a6.34 6.34 0 002.23 2.866l.68.414 6.1-2.716-2.098-4.699 5.077-2.258 5.087 11.463-13.726 6.111zm55.351 20.879l-19.068 16.48c-2.885 2.44-5.756 3.545-8.612 3.316-2.857-.23-5.551-1.799-8.084-4.709-2.545-2.939-3.72-5.861-3.526-8.764.194-2.904 1.745-5.605 4.654-8.104l18.962-16.383 4.84 5.6-18.953 16.444c-1.564 1.352-2.463 2.569-2.698 3.651-.235 1.081.221 2.283 1.367 3.606s2.262 1.946 3.349 1.869c1.088-.076 2.392-.764 3.914-2.063l19.05-16.462 4.805 5.519zm13.514 46.204l-8.472-5.37-5.633 5.291-6.567-4.162 29.09-24.689 5.677 3.597-9.811 36.884-6.629-4.206 2.345-7.345zm-3.835-9.699l5.739 3.641 4.073-12.785-9.812 9.144zm48.167 22.229l-3.526-.97-3.526 12.829-7.053-1.948 9.644-35.112 11.311 3.113c3.526.976 6.015 2.651 7.466 5.026 1.452 2.375 1.701 5.258.749 8.65-1.275 4.655-3.867 7.451-7.775 8.385l2.195 16.066-.088.335-7.616-2.099-1.781-14.275zm-1.895-6.878l4.02 1.111a3.846 3.846 0 003.57-.538 6.334 6.334 0 002.098-3.483c.969-3.527.088-5.663-2.645-6.41l-4.143-1.146-2.9 10.466zm56.797 18.755l-10.023.282-1.763 7.495-7.775.176 10.516-36.663 6.726-.159 12.298 36.152-7.846.185-2.133-7.468zm-8.569-5.89l6.797-.159-3.703-12.9-3.094 13.059zm70.444-.406l-6.956 2.381-17.904-19.116 7.732 22.59-6.956 2.381-11.759-34.45 6.955-2.381 17.93 19.134-7.74-22.617 6.938-2.372 11.76 34.45zm27.883-52.146l-7.308 5.228 17.586 24.645-6.003 4.286-17.587-24.645-7.219 5.123-3.526-4.982 20.53-14.664 3.527 5.009zm37.421-19.655l-7.176 8.933 7.528 6.04 8.481-10.581 4.76 3.818-13.091 16.303-28.376-22.802 13.055-16.259 4.778 3.835-8.454 10.528 6.7 5.388 7.175-8.932 4.62 3.729zm20.989-39.59l-4.54 10.51 8.859 3.827 5.369-12.441 5.598 2.424-8.287 19.187-33.41-14.434 8.295-19.143 5.625 2.425-5.351 12.398 7.933 3.412 4.54-10.519 5.369 2.354z" fill="#fff"/></g><defs><clipPath id="clip0"><path fill="#fff" d="M0 0h506v506H0z"/></clipPath></defs></svg>