<svg width="158" height="158" fill="none" xmlns="http://www.w3.org/2000/svg"><g clip-path="url(#clip0)" fill="#636363"><path d="M127.59 103.6a4.316 4.316 0 00-4.023 2.623 4.32 4.32 0 108.293 1.737 4.224 4.224 0 00-2.608-4.038 4.231 4.231 0 00-1.662-.322zm1.55 7.37l-1.55-2.64h-1.09V111h-.91v-6h2.27c1.46 0 2.18.45 2.18 1.64s-.72 1.54-1.64 1.72l1.73 2.64-.99-.03z"/><path d="M129 106.61c0-.73-.64-.92-1.27-.92h-1.23v1.91h1.09c.73 0 1.41-.09 1.41-.99z"/><path d="M78.79 0a78.79 78.79 0 1078.8 78.89 78.811 78.811 0 00-23.048-55.778A78.8 78.8 0 0078.79 0zM59.34 112.52h-9.9L37.16 77.16v35.72H24.44V45.16h11L47.79 78V45.16h11.55v67.36zm21.72 1.17c-11.64 0-18-8.08-17.45-21h12.08c0 6.36.19 10.9 5.55 10.9 2.72 0 4.09-2.81 4.09-7.26 0-12.18-20.54-13.55-20.54-33.63 0-10.55 4.82-18 16.82-18 9.9 0 15.35 4.54 15.62 20.53h-10.9c0-6.62-1.18-10.8-4.81-10.8-3.28 0-5.55 2.64-4.83 7.27 1.91 12.1 21.09 14.82 21.45 33.45.37 16.09-11.81 18.54-17.08 18.54zm35.44-1.17h-13.36V45.18h28v10.36H116.5v17.25H127v11.65h-10.5v28.08zm11.09.62a5.204 5.204 0 01-4.871-3.178 5.212 5.212 0 01-.409-2.002 5.289 5.289 0 015.28-5.27 5.212 5.212 0 015.18 5.27 5.114 5.114 0 01-1.499 3.681 5.126 5.126 0 01-3.681 1.499z"/></g><defs><clipPath id="clip0"><path fill="#fff" d="M0 0h157.59v157.58H0z"/></clipPath></defs></svg>