<svg width="147" height="147" fill="none" xmlns="http://www.w3.org/2000/svg"><rect width="147" height="147" rx="73.5" fill="#F23D4C"/><path d="M44.862 30.227l4.566 12.89 4.54-12.89h4.81V48h-3.674v-4.858l.366-8.387L50.673 48h-2.515l-4.785-13.232.366 8.374V48h-3.662V30.227h4.785zm31.714 9.289c0 1.75-.31 3.284-.928 4.602-.618 1.319-1.505 2.336-2.66 3.052-1.148.716-2.466 1.074-3.956 1.074-1.473 0-2.787-.354-3.943-1.062-1.155-.708-2.05-1.717-2.685-3.027-.635-1.319-.956-2.832-.965-4.541v-.88c0-1.749.314-3.287.94-4.613.635-1.335 1.526-2.356 2.674-3.064 1.155-.716 2.474-1.075 3.955-1.075 1.48 0 2.795.358 3.943 1.075 1.155.708 2.046 1.729 2.673 3.064.635 1.326.952 2.86.952 4.602v.793zm-3.71-.806c0-1.863-.334-3.28-1.002-4.248-.667-.968-1.62-1.452-2.856-1.452-1.229 0-2.177.48-2.844 1.44-.668.952-1.005 2.352-1.014 4.2v.866c0 1.815.334 3.223 1.001 4.224.668 1 1.628 1.501 2.881 1.501 1.23 0 2.173-.48 2.832-1.44.66-.969.993-2.377 1.001-4.224v-.867zm15.588 4.627c0-.692-.244-1.22-.733-1.587-.488-.374-1.367-.765-2.636-1.172-1.27-.415-2.275-.822-3.016-1.22-2.018-1.091-3.027-2.56-3.027-4.407 0-.96.269-1.815.806-2.564.545-.757 1.322-1.347 2.331-1.77 1.017-.423 2.157-.635 3.418-.635 1.27 0 2.4.232 3.394.696.993.456 1.762 1.103 2.307 1.941.553.838.83 1.79.83 2.857h-3.662c0-.814-.256-1.445-.77-1.892-.512-.456-1.232-.684-2.16-.684-.895 0-1.59.191-2.087.574-.497.374-.745.87-.745 1.489 0 .578.289 1.062.867 1.453.586.39 1.444.756 2.576 1.098 2.083.627 3.6 1.404 4.553 2.332.952.927 1.428 2.083 1.428 3.467 0 1.538-.582 2.746-1.746 3.625-1.163.87-2.73 1.306-4.7 1.306-1.367 0-2.612-.248-3.735-.745-1.123-.504-1.981-1.192-2.575-2.063-.586-.87-.88-1.88-.88-3.027h3.675c0 1.961 1.172 2.942 3.516 2.942.87 0 1.55-.175 2.038-.525.489-.358.733-.854.733-1.49zm19.543-10.144h-5.444V48h-3.662V33.193h-5.372v-2.966h14.478v2.966zM22.462 70.738V77H18.8V59.227h6.934c1.334 0 2.506.244 3.515.732 1.018.488 1.799 1.184 2.344 2.087.546.896.818 1.917.818 3.064 0 1.742-.598 3.117-1.794 4.126-1.189 1.001-2.836 1.502-4.944 1.502h-3.21zm0-2.966h3.272c.968 0 1.705-.228 2.21-.684.512-.456.768-1.107.768-1.953 0-.871-.256-1.575-.769-2.112-.512-.537-1.22-.814-2.124-.83h-3.357v5.579zm27.076.744c0 1.75-.31 3.284-.928 4.602-.619 1.319-1.506 2.336-2.661 3.052-1.148.716-2.466 1.074-3.955 1.074-1.473 0-2.788-.354-3.943-1.062-1.156-.708-2.051-1.717-2.686-3.027-.635-1.319-.956-2.832-.964-4.541v-.88c0-1.749.313-3.287.94-4.613.635-1.335 1.526-2.356 2.673-3.064 1.156-.717 2.474-1.075 3.955-1.075 1.481 0 2.796.358 3.943 1.075 1.156.708 2.047 1.729 2.673 3.064.635 1.326.953 2.86.953 4.602v.793zm-3.711-.806c0-1.863-.334-3.28-1.001-4.248-.668-.968-1.62-1.452-2.857-1.452-1.229 0-2.177.48-2.844 1.44-.667.952-1.005 2.352-1.013 4.2v.866c0 1.815.334 3.223 1 4.224.668 1 1.628 1.501 2.882 1.501 1.228 0 2.172-.48 2.832-1.44.659-.969.992-2.377 1-4.224v-.867zm10.033 3.028V77H52.2V59.227h6.933c1.335 0 2.507.244 3.516.732 1.017.488 1.798 1.184 2.344 2.087.545.896.818 1.917.818 3.064 0 1.742-.599 3.117-1.795 4.126-1.188 1.001-2.836 1.502-4.944 1.502h-3.21zm0-2.966h3.272c.969 0 1.705-.228 2.21-.684.513-.456.769-1.107.769-1.953 0-.871-.256-1.575-.77-2.112-.512-.537-1.22-.814-2.123-.83H55.86v5.579zm25.929-8.545v11.706c0 1.945-.61 3.483-1.832 4.614-1.212 1.132-2.872 1.697-4.98 1.697-2.075 0-3.723-.55-4.944-1.648-1.22-1.098-1.843-2.608-1.868-4.529v-11.84h3.663v11.73c0 1.164.276 2.015.83 2.552.561.529 1.334.793 2.32.793 2.058 0 3.104-1.082 3.136-3.247V59.227h3.675zm6.665 14.831h7.776V77H84.79V59.227h3.663v14.831zm20.166-.72h-6.421L100.978 77h-3.894l6.616-17.773h3.394L113.747 77h-3.894l-1.233-3.662zm-5.432-2.966h4.443l-2.234-6.653-2.209 6.653zm18.798.122h-2.917V77h-3.662V59.227h6.604c2.099 0 3.719.468 4.858 1.403 1.139.936 1.709 2.259 1.709 3.968 0 1.212-.264 2.225-.793 3.04-.521.805-1.315 1.448-2.381 1.928l3.846 7.263V77h-3.931l-3.333-6.506zm-2.917-2.967h2.954c.92 0 1.632-.232 2.136-.695.505-.472.757-1.12.757-1.941 0-.839-.24-1.498-.72-1.978-.472-.48-1.201-.72-2.185-.72h-2.942v5.334z" fill="#fff"/><g clip-path="url(#clip0)"><path fill-rule="evenodd" clip-rule="evenodd" d="M75.86 87.588l4.51 10.972a.843.843 0 00.789.56l11.95.896c.788.112 1.24 1.12.563 1.679l-9.131 7.614c-.338.336-.451.672-.338 1.008l2.818 11.532c.225.784-.676 1.456-1.353 1.008l-10.145-6.27a.85.85 0 00-1.015 0l-10.146 6.27c-.676.448-1.578-.224-1.465-1.008l2.93-11.532a1.8 1.8 0 00-.337-1.008l-9.131-7.614c-.677-.559-.339-1.567.563-1.679l11.837-.896c.45 0 .676-.224.902-.56l4.509-10.972c.225-.784 1.353-.784 1.69 0z" fill="#fff"/></g><defs><clipPath id="clip0"><path fill="#fff" transform="translate(56 87)" d="M0 0h38v36H0z"/></clipPath></defs></svg>