<svg xmlns="http://www.w3.org/2000/svg" xmlns:xlink="http://www.w3.org/1999/xlink" viewBox="0 0 1000 665"><defs><path id="a" d="M944 665.1H55c-30.4 0-55-24.6-55-55V55C0 24.6 24.6 0 55 0h889c30.4 0 55 24.6 55 55v555.1c0 30.4-24.6 55-55 55z"/></defs><clipPath id="b"><use xlink:href="#a" overflow="visible"/></clipPath><g clip-path="url(#b)"><path fill="#FFF" d="M0 0h1000v665H0z"/><path fill="#006EAE" d="M994.5 609.2V55.9c0-28.4-23-51.4-51.4-51.4H55.9c-28.4 0-51.4 23-51.4 51.4v553.2c0 28.4 23 51.4 51.4 51.4h887.2c28.4 0 51.4-23 51.4-51.3zm-902-369l-19.1-47.4-19 47.4h38.1m420.4-18.8c-3.8 2.2-8.3 2.5-13.8 2.5h-33.9v-26.5h34.3c4.9 0 10 .2 13.3 2.1 3.6 1.8 5.8 5.5 5.8 10.5 0 5.2-2.1 9.3-5.7 11.4m241.6 18.8l-19.3-47.4-19.1 47.4h38.4zm-450.3 51.3h-28.6l-.1-93-40.4 93h-24.5L170 198.3v93.2h-56.7L102.6 265H44.5l-10.8 26.5H3.5l49.8-118.9h41.5l47.4 112.7V172.5h45.6l36.4 80.8 33.5-80.8h46.4v119zm113.8 0h-93.1v-119H418v24.9h-65.2v21.4h63.6v24.4l-63.6-.1v23.8H418v24.6zm131.4-86.8c0-13.3-5.3-21.1-14.1-26.3-9-5.3-19.6-5.8-33.7-5.8h-64.2v118.9h27.9v-43.2h30c10 0 16.2.9 20.3 5.1 5.2 5.7 4.5 16 4.5 23.1l.1 15h28.1v-23.4c0-10.5-.8-15.9-4.7-21.7-2.4-3.6-7.6-7.7-13.7-10.1 7.1-2.9 19.5-12.8 19.5-31.6m44.6 86.8h-28.4v-119H594v119zm330 0h-39.5l-52.9-89.2.1 89.2h-56.8L764.1 265h-58l-10.4 26.5H663c-13.6 0-30.7-3-40.4-13.1-9.9-10.2-15-23.8-15-45.5 0-17.7 3.1-33.7 15-46.4 9.1-9.5 23.2-13.9 42.4-13.9h27v25.5h-26.3c-10.2 0-16 1.5-21.6 7-4.7 5-8 14.5-8 27 0 12.7 2.4 21.8 7.7 27.9 4.2 4.6 12 6.1 19.4 6.1h12.5l39.3-93.6h41.8L804 285V172.5h42.5l49 82.8v-82.8H924v119zM3.1 227.8L36.9 149h72.7l9.4 19.6V149h85.3l18.5 42.9L241 149h270.7c12.3 0 23.3 2.3 31.5 9.7V149h74v9.7c12.7-7.2 28.6-9.7 46.6-9.7h107.4l9.9 19.6V149h79.5l10.8 19.6V149h77.5v165.9h-78.2l-14.8-25.1v25.1h-97.6l-10.6-26.5h-24.1l-10.8 26.5H662c-19.8 0-35-4.8-44.7-10.1v10.1H496.8v-37.6c0-5.2-.9-5.6-4.1-5.7h-4.5l.1 43.4h-233v-20.5L247 315h-48.6l-8.4-20.3v20.2H96.2l-10.7-26.5h-24l-10.7 26.5H3.1v-87.1zm992 174.8v33.9c-.8-1-1.6-2.1-2.6-3-6.3-6.5-16.5-9.1-31.7-9.5l-15.1-.4c-4.7-.1-7.9-.4-10.7-1.4-3.7-1.3-6.2-4.4-6.2-8.8 0-3.7 1.2-6.7 4.1-8.6 2.7-1.9 6.1-2.1 11.2-2.1h51m0 109.3c-11.2 5.5-25.9 7.6-41 7.6h-72.2V509c-8.4 6.8-23.5 10.6-37.9 10.6H616.2v-38.4c0-4.6-.5-4.9-5.1-4.9h-3.6v43.3h-75v-44.8c-12.5 5.6-26.8 5.9-38.8 5.8h-9v39.1l-90.8-.1-22.4-25.8-23.7 25.8H200.3v-166h150.3l21.6 25.5 23-25.5h100.6c11.7 0 30.7 1.2 39.3 9.7v-9.7H625c8.6 0 26.8 1.8 37.6 9.7v-9.7h136.3l-.1 9.7c6.9-6.6 21.2-9.7 33.3-9.7h76.4v9.7c8-5.9 19.3-9.7 34.9-9.7H995v23.6h-55.6c-29.2 0-39.9 18.2-39.9 35.4 0 37.6 32.6 36 58.8 36.9 4.8.1 7.7.8 9.8 2.7 1.9 1.5 3.4 4.4 3.4 7.9 0 3.3-1.5 5.9-3.3 7.7-2.3 2.3-6 3-11.3 3h-53.7v25.5h53.9c17.9 0 31-5.1 37.9-15.2V512zm-111.3-78.5c5.5 5.8 8.4 13 8.4 25.2 0 25.6-15.7 37.6-43.8 37.6H794v-25.5h54.1c5.4 0 9-.7 11.4-3 1.9-1.7 3.3-4.4 3.3-7.7 0-3.5-1.4-6.3-3.5-7.9-2.1-1.9-5-2.6-9.9-2.7-26-.9-58.7.8-58.7-36.9 0-17.2 10.7-35.4 39.8-35.4h55.9v25.3h-51.2c-5.1 0-8.4.2-11.2 2.1-3 1.9-4.1 4.8-4.1 8.6 0 4.5 2.6 7.5 6.1 8.8 2.9 1 6 1.4 10.8 1.4l15.2.6c15.2.4 25.5 3 31.8 9.5m-251.6-7.3c3.6-2.3 5.8-6.4 5.8-11.5s-2.2-8.7-5.8-10.7c-3.3-2-8.3-2.1-13.3-2.1h-34.4v26.7h33.9c5.5 0 10.1-.2 13.8-2.4m16.8 14.7c6.2 2.3 11.3 6.5 13.7 10.1 4 5.8 4.6 11.2 4.6 21.7v23.6h-27.9v-14.9c0-7.2.6-17.7-4.5-23.2-4.1-4.4-10.3-5.4-20.4-5.4h-29.8v43.5h-27.9v-119H621c14.1 0 24.4.6 33.5 5.7 8.8 5.3 14.3 12.9 14.3 26.4 0 18.9-12.4 28.6-19.8 31.5m35.3-63.6h93.1V402h-65.3v21.6h63.7v24.3h-63.7v23.6l65.3.1v24.7h-93.1v-119zm-188 54.9c10.7 0 17.3-5.4 17.3-15.6 0-10.5-7-14.6-17.1-14.6h-36.4v30.2h36.2m-63.9-42.1L389.6 437l42.8 48.4v-95.3zm-78.7 46.5L323.2 402h-69.9v21.6h61.2v24.3h-61.2v23.6h68.5l31.9-34.9zm189.8-20.1c0 33-24.1 39.8-48.6 39.8h-34.8v39.9H406l-34.4-39.3-35.6 39.4H225.6v-119h112.1l34.3 38.9 35.5-38.9h89.1c22 0 46.9 6.2 46.9 39.2"/><path fill="#666" d="M944 665.1H55c-30.4 0-55-24.6-55-55V55C0 24.6 24.6 0 55 0h889c30.4 0 55 24.6 55 55v555.1c0 30.4-24.6 55-55 55zm50.5-55.9V55.9c0-28.4-23-51.4-51.4-51.4H55.9c-28.4 0-51.4 23-51.4 51.4v553.2c0 28.4 23 51.4 51.4 51.4h887.2c28.4 0 51.4-23 51.4-51.3z"/></g></svg>